<svg width="346" height="260" viewBox="0 0 346 260" fill="none" xmlns="http://www.w3.org/2000/svg">
<g clip-path="url(#clip0_401_750)">
<path d="M46.6965 18.2505C46.6965 28.2083 53.8878 36.2812 62.7749 36.2812C71.662 36.2812 78.8533 28.2083 78.8533 18.2505C78.8533 8.29283 71.662 0.21986 62.7749 0.21986C61.4246 0.21986 55.2382 -0.0942636 53.982 0.251272C47.0105 2.23025 46.6965 9.83204 46.6965 18.2505Z" fill="#939BA5"/>
<path d="M54.8927 36.2813C46.0128 36.2813 38.8143 28.2087 38.8143 18.2507C38.8143 8.29258 46.0128 0.219971 54.8927 0.219971C63.7726 0.219971 70.9711 8.29258 70.9711 18.2507C70.9711 28.2087 63.7726 36.2813 54.8927 36.2813Z" fill="#A6AFBC"/>
<path d="M54.1077 31.2552C46.8928 31.2552 41.044 25.1515 41.044 17.6222C41.044 10.0929 46.8928 3.98926 54.1077 3.98926C61.3226 3.98926 67.1714 10.0929 67.1714 17.6222C67.1714 25.1515 61.3226 31.2552 54.1077 31.2552Z" fill="#FF5757"/>
<path d="M53.354 5.74854C58.4727 5.74854 62.6807 9.64367 63.4972 14.7325C61.7072 13.1933 59.4148 12.2509 56.9339 12.2509C51.25 12.2509 46.6651 17.057 46.6651 22.9625C46.6651 23.5593 46.7279 24.1562 46.7907 24.7216C44.5297 22.7426 43.0851 19.7899 43.0851 16.4601C43.0537 10.5232 47.67 5.74854 53.354 5.74854Z" fill="#E85F54"/>
<path d="M52.7573 28.491C59.9801 28.491 65.8211 22.397 65.8211 14.858C65.8211 13.1303 65.507 11.4655 64.9418 9.92627C66.3549 12.0937 67.1714 14.7009 67.1714 17.5281C67.1714 25.0356 61.3304 31.161 54.1077 31.161C48.5493 31.161 43.8389 27.5486 41.9233 22.4598C44.2785 26.1036 48.2667 28.491 52.7573 28.491Z" fill="#8E1C17"/>
<path opacity="0.5" d="M49.6798 12.4079C49.0203 13.2874 48.5179 14.2926 47.984 15.235C47.6386 15.8318 47.1675 16.4601 46.5081 16.4601C45.723 16.4601 45.1891 15.5805 45.1263 14.7638C45.0321 13.2246 45.88 11.811 46.9163 10.6802C48.298 9.17241 50.7789 7.19343 52.9771 7.3819C53.7308 7.44473 54.7985 8.01015 54.9555 8.82687C55.2067 10.0205 53.6366 10.1776 52.8201 10.3661C51.4698 10.6174 50.4649 11.3399 49.6798 12.4079Z" fill="white"/>
<path d="M278.954 18.1563C278.954 28.114 286.146 36.187 295.033 36.187C303.92 36.187 311.111 28.114 311.111 18.1563C311.111 8.19859 303.92 0.125622 295.033 0.125622C293.682 0.125622 287.496 -0.188502 286.24 0.157034C279.237 2.13601 278.954 9.7378 278.954 18.1563Z" fill="#939BA5"/>
<path d="M287.119 36.1871C278.239 36.1871 271.041 28.1145 271.041 18.1564C271.041 8.19835 278.239 0.125732 287.119 0.125732C295.999 0.125732 303.198 8.19835 303.198 18.1564C303.198 28.1145 295.999 36.1871 287.119 36.1871Z" fill="#A6AFBC"/>
<path d="M314.565 62.385H217.435L223.214 120.152H324.677L314.565 62.385Z" fill="#C1ADA3"/>
<path d="M314.565 62.385L319.056 63.8928L328.979 120.152H324.677L314.565 62.385Z" fill="#E0C9BA"/>
<path d="M331.586 165.574H234.425L240.234 223.342H341.698L331.586 165.574Z" fill="#C1ADA3"/>
<path d="M328.979 260H307.311L279.237 52.8354H301.627L328.979 260Z" fill="#A6AFBC"/>
<path d="M298.644 31.1296L263.504 260H237.062L276.882 31.1296H298.644Z" fill="#A6AFBC"/>
<path d="M298.644 31.1296H304.736L271.951 260H261.4L298.644 31.1296Z" fill="#939BA5"/>
<path d="M304.736 31.1296L337.05 260H328.979L299.9 41.6528L304.736 31.1296Z" fill="#939BA5"/>
<path d="M96.5648 260H74.8966L46.8222 52.8354H69.2126L96.5648 260Z" fill="#A6AFBC"/>
<path d="M66.2292 31.1296L31.0891 260H4.64766L44.4669 31.1296H66.2292Z" fill="#A6AFBC"/>
<path d="M66.2293 31.1296H72.3215L39.5366 260H28.9852L66.2293 31.1296Z" fill="#939BA5"/>
<path d="M72.3215 31.1296L104.667 260H96.5647L67.5168 41.6528L72.3215 31.1296Z" fill="#939BA5"/>
<path d="M16.7693 120.152H296.383L306.652 64.1126L304.108 59.9976L27.0067 64.1126L14.2256 116.037L16.7693 120.152Z" fill="#E0C9BA"/>
<path d="M14.2257 116.037H293.839L304.108 59.9976H24.4945L14.2257 116.037Z" fill="#FFE5D2"/>
<path d="M254.868 116.037H293.745L263.912 59.9976H225.066L254.868 116.037Z" fill="#FF5757"/>
<path d="M187.916 116.037H226.794L196.961 59.9976H158.115L187.916 116.037Z" fill="#FF5757"/>
<path d="M120.965 116.32H159.811L130.009 60.2803H91.1634L120.965 116.32Z" fill="#FF5757"/>
<path d="M54.0135 116.32H92.8592L63.0576 60.2803H24.2119L54.0135 116.32Z" fill="#FF5757"/>
<path d="M2.51227 223.342H282.157L292.395 167.302L289.883 163.187L12.7811 167.302L3.05176e-05 219.227L2.51227 223.342Z" fill="#E0C9BA"/>
<path d="M0 219.227H279.614L289.883 163.187H10.2375L0 219.227Z" fill="#FFE5D2"/>
<path d="M240.642 219.227H279.52L249.687 163.187H210.841L240.642 219.227Z" fill="#FF5757"/>
<path d="M173.691 219.227H212.537L182.735 163.187H143.889L173.691 219.227Z" fill="#FF5757"/>
<path d="M106.739 219.509H145.585L115.783 163.47H76.9377L106.739 219.509Z" fill="#FF5757"/>
<path d="M39.7879 219.509H78.6335L48.832 163.47H9.95486L39.7879 219.509Z" fill="#FF5757"/>
<path d="M331.586 165.574L336.077 167.082L346 223.342H341.698L331.586 165.574Z" fill="#E0C9BA"/>
<path d="M286.334 31.1609C279.119 31.1609 273.27 25.0573 273.27 17.528C273.27 9.9987 279.119 3.89502 286.334 3.89502C293.549 3.89502 299.398 9.9987 299.398 17.528C299.398 25.0573 293.549 31.1609 286.334 31.1609Z" fill="#FF5757"/>
<path d="M285.58 5.6228C290.699 5.6228 294.907 9.51793 295.724 14.6067C293.934 13.0675 291.641 12.1252 289.16 12.1252C283.476 12.1252 278.891 16.9312 278.891 22.8368C278.891 23.4336 278.954 24.0304 279.017 24.5959C276.756 22.6169 275.312 19.6641 275.312 16.3344C275.312 10.4289 279.896 5.6228 285.58 5.6228Z" fill="#E85F54"/>
<path d="M284.984 28.3652C292.206 28.3652 298.047 22.2712 298.047 14.7323C298.047 13.0046 297.733 11.3397 297.168 9.80054C298.581 11.968 299.398 14.5752 299.398 17.4023C299.398 24.9099 293.557 31.0353 286.334 31.0353C280.776 31.0353 276.065 27.4229 274.15 22.3341C276.505 25.9779 280.493 28.3652 284.984 28.3652Z" fill="#8E1C17"/>
<path opacity="0.5" d="M281.906 12.3136C281.247 13.1932 280.744 14.1984 280.21 15.1408C279.865 15.7376 279.394 16.3658 278.734 16.3658C277.949 16.3658 277.416 15.4863 277.353 14.6696C277.259 13.1304 278.106 11.7168 279.143 10.586C280.524 9.07817 283.005 7.09919 285.203 7.28766C285.957 7.35049 287.025 7.91591 287.182 8.73263C287.433 9.9263 285.863 10.0834 285.046 10.2718C283.696 10.5231 282.691 11.2456 281.906 12.3136Z" fill="white"/>
<path d="M277.196 223.342H243.437L242.841 226.703L266.644 227.708L275.72 233.865L277.196 223.342Z" fill="#7E858C"/>
<path d="M291.987 120.152H261.4L260.803 123.576L283.414 124.644L290.511 130.455L291.987 120.152Z" fill="#7E858C"/>
<path d="M59.6032 120.152H29.0165L28.4199 123.576L51.0302 124.644L58.1273 130.455L59.6032 120.152Z" fill="#7E858C"/>
<path d="M44.8123 223.342H11.0225L10.4259 226.703L34.2294 227.771L43.3049 233.834L44.8123 223.342Z" fill="#7E858C"/>
</g>
<defs>
<clipPath id="clip0_401_750">
<rect width="346" height="260" fill="white" transform="matrix(-1 0 0 1 346 0)"/>
</clipPath>
</defs>
</svg>
