<svg width="8" height="12" viewBox="0 0 8 12" fill="none" xmlns="http://www.w3.org/2000/svg">
<path d="M3.60682 6.00324C4.0066 6.40302 4.39979 6.79182 4.78859 7.18281C5.74191 8.13394 6.69304 9.08726 7.64636 10.0406C8.10764 10.5019 8.11423 11.218 7.66393 11.6661C7.20704 12.1208 6.49754 12.1098 6.02966 11.6441C4.42395 10.0362 2.81604 8.43048 1.21033 6.82037C1.08293 6.69297 0.970905 6.54141 0.880844 6.38545C0.735869 6.13284 0.733672 5.85607 0.883041 5.61005C1.00385 5.41235 1.15761 5.23004 1.32016 5.06529C2.89073 3.48814 4.46569 1.91757 6.03845 0.342614C6.48216 -0.101098 7.20265 -0.118671 7.64196 0.311862C8.10545 0.766557 8.12082 1.48045 7.66393 1.93734C6.34158 3.26409 5.01484 4.58863 3.69029 5.91318C3.66613 5.93954 3.64196 5.9659 3.60682 6.00324Z" fill="white"/>
</svg>
