<svg width="18" height="22" viewBox="0 0 18 22" fill="none" xmlns="http://www.w3.org/2000/svg">
<g clip-path="url(#clip0_401_851)">
<path d="M2.89447 6.69002C2.45936 6.29597 2.04889 5.91833 1.66304 5.56532C2.10635 5.122 2.50862 4.72794 2.93552 4.29284C3.31315 4.69511 3.73184 5.14663 4.16695 5.60636C5.45584 4.71152 6.83505 4.19432 8.33739 4.02192C8.33739 3.41442 8.33739 2.83975 8.33739 2.22403C7.76272 2.22403 7.21269 2.22403 6.63802 2.22403C6.63802 1.62474 6.63802 1.06649 6.63802 0.491821C8.37844 0.491821 10.0942 0.491821 11.8429 0.491821C11.8429 1.04186 11.8429 1.5919 11.8429 2.19941C11.301 2.19941 10.751 2.19941 10.1681 2.19941C10.1681 2.82333 10.1681 3.40621 10.1681 4.01371C11.654 4.19432 13.0332 4.6869 14.2893 5.57353C14.7162 5.11379 15.1349 4.67048 15.5207 4.25179C15.9805 4.71152 16.3745 5.10558 16.8261 5.56532C16.4566 5.8937 16.0297 6.27134 15.5782 6.66539C17.4746 8.79987 18.2874 11.2053 17.9179 13.9555C17.606 16.2295 16.5305 18.1095 14.7408 19.5626C11.3092 22.3538 6.25217 22.0911 3.09971 18.9879C-0.0938041 15.8355 -0.561748 10.5075 2.89447 6.69002ZM2.24591 12.724C2.2377 16.5907 5.36554 19.7432 9.21581 19.7432C13.0907 19.7514 16.2268 16.6154 16.235 12.724C16.2432 8.86555 13.1071 5.72951 9.24044 5.72951C5.38196 5.73772 2.25412 8.85734 2.24591 12.724Z" fill="white"/>
<path d="M9.25705 12.7322C9.25705 10.9507 9.25705 9.23494 9.25705 7.51915C11.4736 7.40422 14.3223 9.18569 14.4865 12.4777C14.6425 15.5481 12.2043 18.0356 9.15853 17.9945C6.08817 17.9535 3.93727 15.3346 4.01936 12.7404C4.88136 12.7404 5.75157 12.7404 6.62179 12.7404C7.47558 12.7322 8.33758 12.7322 9.25705 12.7322Z" fill="white"/>
</g>
<defs>
<clipPath id="clip0_401_851">
<rect width="17.5027" height="21" fill="white" transform="translate(0.49707 0.5)"/>
</clipPath>
</defs>
</svg>
