<svg width="24" height="18" viewBox="0 0 24 18" fill="none" xmlns="http://www.w3.org/2000/svg">
<path d="M20.2658 8.10404C18.9241 8.68574 17.6575 9.2393 16.3815 9.78347C15.1055 10.337 13.8295 10.8812 12.5629 11.4441C12.197 11.613 11.8686 11.6224 11.4933 11.4535C7.89987 9.89606 4.29705 8.3386 0.703622 6.79051C0.328328 6.63101 -0.00943552 6.44337 -5.31872e-05 5.96487C0.00932914 5.51452 0.337711 5.33625 0.694239 5.18613C4.30644 3.62867 7.90925 2.06182 11.5214 0.49497C11.8686 0.344852 12.1688 0.354235 12.5066 0.504352C16.1282 2.08058 19.7498 3.64743 23.3713 5.21428C23.7091 5.3644 24.0187 5.55204 23.9906 5.9461C23.9718 6.18066 23.8029 6.4246 23.6434 6.61225C23.5871 6.67792 23.3432 6.62163 23.2118 6.56534C22.9679 6.47151 22.7427 6.25572 22.4894 6.21819C20.247 5.90857 17.9953 5.6271 15.7529 5.33625C14.6082 5.18613 13.4636 5.03602 12.3096 4.89528C12.2439 4.8859 12.1876 4.87652 12.1219 4.87652C11.6528 4.84837 11.2963 5.11108 11.2494 5.53328C11.2024 5.9461 11.4933 6.30263 11.953 6.35893C13.3791 6.54657 14.8053 6.73422 16.2314 6.91248C17.939 7.13766 19.6372 7.36283 21.3447 7.56925C21.6731 7.60677 21.7576 7.74751 21.7576 8.05713C21.7482 10.7029 21.7576 13.3394 21.7482 15.9852C21.7482 16.5388 21.4573 16.8765 21.007 16.8765C20.5566 16.8765 20.2564 16.5294 20.2564 15.9852C20.2564 13.5646 20.2564 11.1439 20.2564 8.71389C20.2658 8.53563 20.2658 8.36674 20.2658 8.10404Z" fill="white"/>
<path d="M19.5153 11.9602C19.5153 12.129 19.5059 12.3073 19.5153 12.4762C19.6748 14.2588 18.7928 15.4598 17.3386 16.3042C15.3683 17.4582 13.201 17.7397 10.968 17.5708C9.50434 17.4676 8.09699 17.1204 6.82099 16.3886C5.7045 15.7412 4.73812 14.9156 4.56923 13.5645C4.43788 12.5512 4.52232 11.5098 4.52232 10.4778C4.52232 10.1869 4.70997 10.1494 4.94453 10.2526C5.30106 10.4027 5.65758 10.5622 6.0235 10.7123C7.68417 11.4348 9.34484 12.1478 11.0055 12.8702C11.6904 13.1705 12.3566 13.1799 13.0415 12.8796C14.9836 12.0258 16.9351 11.1908 18.8773 10.3464C19.4778 10.0837 19.534 10.1212 19.534 10.7874C19.5153 11.1814 19.5153 11.5755 19.5153 11.9602Z" fill="white"/>
</svg>
